<svg width="16" height="16" viewBox="0 0 16 16" fill="none" xmlns="http://www.w3.org/2000/svg">
<rect width="16" height="16" rx="4" fill="white"/>
<path fill-rule="evenodd" clip-rule="evenodd" d="M5.37189 5.00026C5.37189 5.89829 6.09892 6.62628 6.99576 6.62628C7.8926 6.62628 8.61963 5.89829 8.61963 5.00026C8.61963 4.10222 7.8926 3.37423 6.99576 3.37423C6.09892 3.37423 5.37189 4.10222 5.37189 5.00026ZM6.99576 5.96466C6.46384 5.96466 6.03264 5.53288 6.03264 5.00026C6.03264 4.46763 6.46384 4.03585 6.99576 4.03585C7.52768 4.03585 7.95888 4.46763 7.95888 5.00026C7.95888 5.53288 7.52768 5.96466 6.99576 5.96466Z" fill="url(#paint0_linear_946_61)"/>
<path fill-rule="evenodd" clip-rule="evenodd" d="M11.412 7.29912H8.91979C9.02317 7.2123 9.1206 7.11862 9.2114 7.01878H11.5334L12 6.3179H9.68753C9.88223 5.91998 9.99152 5.47257 9.99152 4.99974C9.99152 3.34303 8.65028 2 6.99576 2C5.34125 2 4 3.34303 4 4.99974C4 6.65644 5.34124 8 6.99576 8H10.9454L11.412 7.29912ZM6.99576 7.29861C5.72782 7.29861 4.69994 6.26937 4.69994 4.99974C4.69994 3.73011 5.72782 2.70087 6.99576 2.70087C8.26371 2.70087 9.29158 3.73011 9.29158 4.99974C9.29158 6.26937 8.26371 7.29861 6.99576 7.29861Z" fill="url(#paint1_linear_946_61)"/>
<path d="M3.12092 14L2 10H3.02876L3.60991 12.6211H3.64188L4.30578 10H5.14458L5.80848 12.627H5.84045L6.42348 10H7.45036L6.33132 14H5.43421L4.74022 11.5742H4.71013L4.01614 14H3.12092Z" fill="#2E333C"/>
<path d="M8.76593 10V14H7.83497V10H8.76593Z" fill="#2E333C"/>
<path d="M9.35036 14V10H10.2813V11.6914H10.3321L11.6054 10H12.7018L11.3364 11.7852L12.7263 14H11.6129L10.6537 12.4277L10.2813 12.916V14H9.35036Z" fill="#2E333C"/>
<path d="M14 10V14H13.069V10H14Z" fill="#2E333C"/>
<defs>
<linearGradient id="paint0_linear_946_61" x1="4" y1="2" x2="9.76" y2="9.68" gradientUnits="userSpaceOnUse">
<stop stop-color="#0083C7"/>
<stop offset="1" stop-color="#00AA5B"/>
</linearGradient>
<linearGradient id="paint1_linear_946_61" x1="4" y1="2" x2="9.76" y2="9.68" gradientUnits="userSpaceOnUse">
<stop stop-color="#0083C7"/>
<stop offset="1" stop-color="#00AA5B"/>
</linearGradient>
</defs>
</svg>
